<?xml version="1.0" encoding="UTF-8" standalone="no"?>
<!-- Created with Inkscape (http://www.inkscape.org/) -->

<svg
   xmlns:dc="http://purl.org/dc/elements/1.1/"
   xmlns:cc="http://creativecommons.org/ns#"
   xmlns:rdf="http://www.w3.org/1999/02/22-rdf-syntax-ns#"
   xmlns:svg="http://www.w3.org/2000/svg"
   xmlns="http://www.w3.org/2000/svg"
   xmlns:sodipodi="http://sodipodi.sourceforge.net/DTD/sodipodi-0.dtd"
   xmlns:inkscape="http://www.inkscape.org/namespaces/inkscape"
   version="1.1"
   width="256"
   height="256"
   id="svg2"
   inkscape:version="0.48.4 r9939"
   sodipodi:docname="icon-2.svg"
   inkscape:export-filename="/home/user08/Logaster/Logaster.Wordpress.Plugin/assets/variants/icon-128x128.png"
   inkscape:export-xdpi="90"
   inkscape:export-ydpi="90">
  <sodipodi:namedview
     pagecolor="#ffffff"
     bordercolor="#666666"
     borderopacity="1"
     objecttolerance="10"
     gridtolerance="10"
     guidetolerance="10"
     inkscape:pageopacity="0"
     inkscape:pageshadow="2"
     inkscape:window-width="1855"
     inkscape:window-height="1056"
     id="namedview2989"
     showgrid="false"
     inkscape:zoom="1.8144531"
     inkscape:cx="35.273048"
     inkscape:cy="130.78804"
     inkscape:window-x="65"
     inkscape:window-y="24"
     inkscape:window-maximized="1"
     inkscape:current-layer="svg2" />
  <defs
     id="defs4" />
  <metadata
     id="metadata7">
    <rdf:RDF>
      <cc:Work
         rdf:about="">
        <dc:format>image/svg+xml</dc:format>
        <dc:type
           rdf:resource="http://purl.org/dc/dcmitype/StillImage" />
        <dc:title></dc:title>
      </cc:Work>
    </rdf:RDF>
  </metadata>
  <g
     transform="translate(0,-796.36249)"
     id="layer1" />
  <rect
     style="fill:#e51e2b;fill-opacity:1;stroke:none"
     id="rect3011"
     width="256"
     height="256"
     x="0"
     y="0" />
  <g
     id="g3011"
     transform="translate(0.1732785,4.602584)">
    <path
       inkscape:connector-curvature="0"
       d="m 35.308368,180.81409 0,-3.26054 -11.938645,0 c -0.652624,0 -0.901024,-0.15714 -1.024855,-0.25401 -0.315292,-0.27536 -0.280981,-0.68032 -0.280981,-0.92857 l 0,-17.32286 -4.105924,0 0,19.40647 c 0,0.92969 0.434221,1.52043 0.777181,1.802 0.496074,0.4049 1.305986,0.55751 2.021177,0.55751 l 14.552047,0 z m 19.068399,-22.01366 c -2.646698,0 -6.250794,0 -8.678513,2.29811 -2.365728,2.2419 -2.51725,5.87858 -2.51725,8.83004 0,2.46088 0,6.40794 2.51725,8.83566 2.392832,2.30382 6.093805,2.30382 8.678513,2.30382 2.51725,0 6.312934,0 8.671315,-2.30382 2.241886,-2.17991 2.48956,-5.96982 2.48956,-8.83566 0,-2.85458 -0.220133,-6.65071 -2.48956,-8.83004 -2.392831,-2.29811 -6.092074,-2.29811 -8.671315,-2.29811 z m -6.965996,11.12815 c 0,-3.32312 0.494482,-5.03449 1.333515,-6.09265 1.272678,-1.58292 3.328743,-1.77437 5.597593,-1.77437 2.207587,0 4.354174,0.19145 5.631477,1.77437 0.681895,0.83918 1.334669,2.33141 1.334669,6.09265 0,3.51904 -0.618324,5.16395 -1.334669,6.06497 -1.306562,1.65068 -3.389579,1.80768 -5.631477,1.80768 -2.26885,0 -4.324915,-0.157 -5.597593,-1.80768 -0.715191,-0.90102 -1.333515,-2.51724 -1.333515,-6.06497 z m 47.979023,0.21913 -4.10593,0 0,5.94214 c 0,0.34297 0,0.7772 -0.33735,1.12016 -0.34282,0.34354 -0.71461,0.34354 -1.08684,0.34354 l -5.32109,0 c -1.740058,0 -3.266753,-0.46738 -4.167776,-2.27519 -0.342972,-0.68189 -0.873495,-2.17428 -0.873495,-5.34978 0,-3.13729 0.530523,-4.56711 0.906791,-5.25347 0.839033,-1.52108 2.45526,-2.36011 4.820988,-2.36011 l 9.669072,0 0,-3.26689 -10.824113,0 c -2.083029,0 -3.918234,0.46752 -5.252903,1.33524 -3.2049,2.08302 -3.548448,6.09827 -3.548448,9.67484 0,3.04589 0.219706,6.84201 2.866415,9.04903 0.991697,0.83907 2.64122,1.70687 5.0688,1.70687 l 9.263679,0 c 0.62452,0 1.55999,-0.18584 2.11633,-0.65267 0.40654,-0.33902 0.80587,-1.02548 0.80587,-2.14669 l 0,-7.86702 z m 7.551436,10.66638 4.33068,0 2.20715,-5.50243 10.48071,0 2.24175,5.50243 4.31915,0 -8.21157,-19.55841 c -0.77705,-1.83534 -1.70546,-2.45525 -3.57527,-2.45525 -1.96063,0 -2.79966,0.61991 -3.5767,2.45525 l -8.2159,19.55841 z m 11.1727,-17.28783 c 0.12398,-0.31024 0.33878,-0.90102 0.6199,-0.90102 0.28112,0 0.50169,0.59078 0.62423,0.90102 l 3.54211,8.8632 -8.3615,0 3.57526,-8.8632 z m 19.93497,17.28783 13.36975,0 c 1.43011,0 2.79822,-0.15261 3.88522,-1.55369 0.90679,-1.14937 1.09276,-2.67607 1.09276,-4.04389 0,-1.02501 -0.12398,-2.95146 -1.4301,-4.19546 -0.65307,-0.62567 -1.65068,-1.09247 -3.11538,-1.55365 l -7.95641,-2.52286 c -1.74005,-0.55807 -2.02117,-1.49239 -2.02117,-2.45526 0,-0.40668 0.0275,-1.18373 0.55647,-1.67821 0.50169,-0.46853 1.14899,-0.49607 1.71267,-0.49607 l 11.13377,0 0,-3.26689 -12.53649,0 c -1.05239,0 -2.45511,0.15324 -3.57526,1.2114 -1.24558,1.14885 -1.39695,2.73623 -1.39695,4.04395 0,1.21068 0.12398,2.92205 1.12016,4.10405 0.86786,1.05989 2.23598,1.52107 2.57909,1.61622 l 8.58207,2.7087 c 1.89864,0.58688 2.11776,1.58305 2.11776,2.4564 0,0.74288 -0.0951,2.36472 -2.05577,2.36472 l -12.06219,0 0,3.26054 z m 38.80602,0 0,-18.49909 8.52008,0 0,-3.26689 -21.11712,0 0,3.26689 8.4927,0 0,18.49909 4.10434,0 z m 34.76799,0 0,-3.26054 -11.62825,0 c -0.65307,0 -1.14899,-0.0333 -1.40272,-0.28155 -0.18597,-0.1583 -0.30851,-0.50183 -0.30851,-0.83918 l 0,-5.10138 12.90699,0 0,-3.2669 -12.90699,0 0,-4.38114 c 0,-0.31601 0,-0.7485 0.34311,-1.05816 0.30995,-0.2827 0.74244,-0.31024 1.12015,-0.31024 l 11.75368,0 0,-3.26689 -13.96082,0 c -0.8448,0 -1.8972,0.062 -2.61369,0.83917 -0.4671,0.52937 -0.74821,1.3971 -0.74821,2.26943 l 0,15.42553 c 0,0.83903 0.062,1.83526 0.8102,2.54989 0.71505,0.68196 1.55408,0.68196 2.4897,0.68196 l 14.14536,0 z m 10.04678,0 4.10578,0 0,-16.94486 c 0,-0.43984 0,-0.83903 0.43394,-1.21703 0.34311,-0.30966 0.65306,-0.3372 1.08699,-0.3372 l 6.65604,0 c 0.65307,0 1.64924,0 2.3023,0.65321 0.43393,0.43422 0.77704,1.30584 0.77704,3.01274 0,0.7485 -0.062,2.30272 -0.50024,2.98461 -0.55792,0.8735 -1.52093,0.96302 -2.23599,0.96302 l -4.10578,0 c -1.18214,0 -1.83521,0.62567 -1.83521,1.49801 l 0,0.49549 c 0,0.62005 0.59107,1.39723 1.02501,1.83535 l 7.15197,7.05666 5.16394,0 -8.27212,-7.6806 0,-0.15325 2.79822,0 c 2.48827,0 3.54787,-1.18199 4.10579,-2.24016 0.87219,-1.61738 0.93418,-3.32874 0.93418,-4.91166 0,-1.58695 -0.0619,-3.30006 -1.09276,-4.79187 -1.27297,-1.89719 -3.13701,-1.98844 -4.66226,-1.98844 l -10.32213,0 c -0.81164,0 -1.83665,0.12456 -2.61369,0.86844 -0.87219,0.83846 -0.90102,1.93151 -0.90102,2.83253"
       style="fill:#ffffff;fill-opacity:1;fill-rule:evenodd;stroke:none"
       id="path2998" />
    <path
       inkscape:connector-curvature="0"
       d="m 127.86873,65.726772 c -8.16355,0 -19.30594,0 -26.80307,7.106606 -7.306246,6.91758 -7.783486,18.161485 -7.783486,27.291552 0,7.59265 0,19.79283 7.783486,27.28996 7.393,7.12313 18.83743,7.12313 26.80307,7.12313 7.79301,0 19.50828,0 26.81437,-7.12313 6.91492,-6.7266 7.68817,-18.44869 7.68817,-27.28996 0,-8.842835 -0.67773,-20.565898 -7.68817,-27.291552 -7.40161,-7.106606 -18.839,-7.106606 -26.81437,-7.106606 z m -11.06268,34.917958 c 0,-5.69316 0.84258,-8.616485 2.28223,-10.420451 2.17873,-2.708083 5.6845,-3.030182 9.56236,-3.030182 3.77455,0 7.44402,0.322099 9.62298,3.030182 1.17066,1.439448 2.28135,3.989795 2.28135,10.420451 0,6.00458 -1.05693,8.81707 -2.28135,10.36936 -2.23006,2.81225 -5.79555,3.0726 -9.62298,3.0726 -3.87786,0 -7.38363,-0.26035 -9.56236,-3.0726 -1.2244,-1.55229 -2.28223,-4.31168 -2.28223,-10.36936 z m -7.48747,-17.615703 c 0.35489,-0.641977 0.74624,-1.214646 1.16188,-1.734447 3.94033,-4.902778 10.28252,-5.476337 17.30162,-5.476337 6.81316,0 13.44173,0.573559 17.38911,5.476337 0.40007,0.495366 0.79992,1.059381 1.18176,1.734447 l -6.81339,0 c 1.451,0.573558 2.81226,1.379702 3.99248,2.517257 3.87873,3.722574 4.25191,10.204535 4.25191,15.098446 0,4.88435 -0.42448,11.36631 -4.25191,15.08972 -0.72884,0.71068 -1.52631,1.28424 -2.37666,1.76148 l 4.94434,0 c -0.29344,0.51109 -0.61533,0.96406 -0.92853,1.36148 -4.03402,5.10307 -10.47176,5.58031 -17.38911,5.58031 -7.0191,0 -13.36129,-0.47724 -17.30162,-5.58031 -0.32018,-0.39742 -0.63345,-0.85039 -0.93802,-1.36148 l 6.72648,0 c -0.85114,-0.47722 -1.65725,-1.0508 -2.39481,-1.76148 -4.29608,-4.1468 -4.29608,-10.89777 -4.29608,-15.08972 0,-5.049176 0.26032,-11.270793 4.29608,-15.098446 1.19746,-1.137555 2.55898,-1.943699 4.00708,-2.517257"
       style="fill:#ffffff;fill-opacity:1;fill-rule:evenodd;stroke:none"
       id="path3000" />
  </g>
</svg>
